<svg width="253" height="360" viewBox="0 0 253 360" fill="none" xmlns="http://www.w3.org/2000/svg">
<circle r="22.5" transform="matrix(1 0 0 -1 204.5 112.5)" fill="black"/>
<circle r="22.5" transform="matrix(1 0 0 -1 152.5 112.5)" fill="black"/>
<circle r="22.5" transform="matrix(1 0 0 -1 126.5 157.5)" fill="black"/>
<circle r="22.5" transform="matrix(1 0 0 -1 152.5 202.5)" fill="black"/>
<circle r="22.5" transform="matrix(1 0 0 -1 100.5 202.5)" fill="black"/>
<circle r="22.5" transform="matrix(1 0 0 -1 74.5 247.5)" fill="black"/>
<circle r="22.5" transform="matrix(1 0 0 -1 152.5 22.5)" fill="black"/>
<circle r="22.5" transform="matrix(1 0 0 -1 178.5 157.5)" fill="black"/>
<circle r="22.5" transform="matrix(1 0 0 -1 230.5 157.5)" fill="black"/>
<circle r="22.5" transform="matrix(1 0 0 -1 204.5 202.5)" fill="black"/>
<circle r="22.5" transform="matrix(1 0 0 -1 178.5 247.5)" fill="black"/>
<circle r="22.5" transform="matrix(1 0 0 -1 126.5 247.5)" fill="black"/>
<circle r="22.5" transform="matrix(1 0 0 -1 126.5 67.5)" fill="black"/>
<circle r="22.5" transform="matrix(1 0 0 -1 100.5 112.5)" fill="black"/>
<circle r="22.5" transform="matrix(1 0 0 -1 74.5 67.5)" fill="black"/>
<circle r="22.5" transform="matrix(1 0 0 -1 100.5 22.5)" fill="black"/>
<circle r="22.5" transform="matrix(1 0 0 -1 74.5 157.5)" fill="black"/>
<circle r="22.5" transform="matrix(1 0 0 -1 48.5 112.5)" fill="black"/>
<circle r="22.5" transform="matrix(1 0 0 -1 22.5 67.5)" fill="black"/>
<circle r="22.5" transform="matrix(1 0 0 -1 48.5 22.5)" fill="black"/>
<circle r="22.5" transform="matrix(1 0 0 -1 178.5 67.5)" fill="black"/>
<circle r="22.5" transform="matrix(-1 8.74228e-08 8.74228e-08 1 230.5 67.5)" fill="black"/>
<circle r="22.5" transform="matrix(1 0 0 -1 204.5 292.5)" fill="black"/>
<circle r="22.5" transform="matrix(1 0 0 -1 178.5 337.5)" fill="black"/>
<circle r="22.5" transform="matrix(1 0 0 -1 152.5 292.5)" fill="black"/>
<circle r="22.5" transform="matrix(1 0 0 -1 100.5 292.5)" fill="black"/>
</svg>
