<svg width="1431" height="360" viewBox="0 0 1431 360" fill="none" xmlns="http://www.w3.org/2000/svg">
<circle r="22.5" transform="matrix(1 0 0 -1 204.5 112.5)" fill="white"/>
<circle r="22.5" transform="matrix(1 0 0 -1 152.5 112.5)" fill="white"/>
<circle r="22.5" transform="matrix(1 0 0 -1 126.5 157.5)" fill="white"/>
<circle r="22.5" transform="matrix(1 0 0 -1 152.5 202.5)" fill="white"/>
<circle r="22.5" transform="matrix(1 0 0 -1 100.5 202.5)" fill="white"/>
<circle r="22.5" transform="matrix(1 0 0 -1 74.5 247.5)" fill="white"/>
<circle r="22.5" transform="matrix(1 0 0 -1 152.5 22.5)" fill="white"/>
<circle r="22.5" transform="matrix(1 0 0 -1 178.5 157.5)" fill="white"/>
<circle r="22.5" transform="matrix(1 0 0 -1 230.5 157.5)" fill="white"/>
<circle r="22.5" transform="matrix(1 0 0 -1 204.5 202.5)" fill="white"/>
<circle r="22.5" transform="matrix(1 0 0 -1 178.5 247.5)" fill="white"/>
<circle r="22.5" transform="matrix(1 0 0 -1 126.5 247.5)" fill="white"/>
<circle r="22.5" transform="matrix(1 0 0 -1 126.5 67.5)" fill="white"/>
<circle r="22.5" transform="matrix(1 0 0 -1 100.5 112.5)" fill="white"/>
<circle r="22.5" transform="matrix(1 0 0 -1 74.5 67.5)" fill="white"/>
<circle r="22.5" transform="matrix(1 0 0 -1 100.5 22.5)" fill="white"/>
<circle r="22.5" transform="matrix(1 0 0 -1 74.5 157.5)" fill="white"/>
<circle r="22.5" transform="matrix(1 0 0 -1 48.5 112.5)" fill="white"/>
<circle r="22.5" transform="matrix(1 0 0 -1 22.5 67.5)" fill="white"/>
<circle r="22.5" transform="matrix(1 0 0 -1 48.5 22.5)" fill="white"/>
<circle r="22.5" transform="matrix(1 0 0 -1 178.5 67.5)" fill="white"/>
<circle r="22.5" transform="matrix(-1 8.74228e-08 8.74228e-08 1 230.5 67.5)" fill="white"/>
<circle r="22.5" transform="matrix(1 0 0 -1 204.5 292.5)" fill="white"/>
<circle r="22.5" transform="matrix(1 0 0 -1 178.5 337.5)" fill="white"/>
<circle r="22.5" transform="matrix(1 0 0 -1 152.5 292.5)" fill="white"/>
<circle r="22.5" transform="matrix(1 0 0 -1 100.5 292.5)" fill="white"/>
<path d="M427.645 160.086C423.88 128.844 400.233 110.878 368.925 110.878C333.192 110.878 305.912 136.109 305.912 180.364C305.912 224.486 332.729 249.849 368.925 249.849C403.602 249.849 424.54 226.798 427.645 201.896L398.714 201.764C396.006 216.229 384.645 224.552 369.388 224.552C348.846 224.552 334.909 209.294 334.909 180.364C334.909 152.226 348.648 136.175 369.586 136.175C385.24 136.175 396.535 145.224 398.714 160.086H427.645ZM493.465 249.982C524.244 249.982 543.399 228.911 543.399 197.669C543.399 166.229 524.244 145.224 493.465 145.224C462.685 145.224 443.53 166.229 443.53 197.669C443.53 228.911 462.685 249.982 493.465 249.982ZM493.597 228.185C479.396 228.185 472.13 215.173 472.13 197.471C472.13 179.769 479.396 166.691 493.597 166.691C507.534 166.691 514.799 179.769 514.799 197.471C514.799 215.173 507.534 228.185 493.597 228.185ZM561.695 248H589.833V187.101C589.833 175.872 596.967 168.408 606.346 168.408C615.593 168.408 621.802 174.749 621.802 184.723V248H649.081V186.044C649.081 175.542 655.092 168.408 665.33 168.408C674.313 168.408 681.05 174.023 681.05 185.317V248H709.122V179.769C709.122 157.774 696.044 145.224 677.153 145.224C662.291 145.224 650.732 152.82 646.571 164.445H645.514C642.278 152.688 631.908 145.224 617.971 145.224C604.298 145.224 593.928 152.49 589.701 164.445H588.512V146.545H561.695V248ZM731.876 248H759.618V231.751H760.873C764.77 240.206 773.29 249.651 789.671 249.651C812.789 249.651 830.821 231.355 830.821 197.405C830.821 162.53 811.996 145.224 789.737 145.224C772.762 145.224 764.638 155.33 760.873 163.587H760.014V112.727H731.876V248ZM759.42 197.273C759.42 179.175 767.082 167.616 780.754 167.616C794.691 167.616 802.089 179.703 802.089 197.273C802.089 214.974 794.559 227.26 780.754 227.26C767.214 227.26 759.42 215.371 759.42 197.273ZM921.773 112.727H893.173V248H921.773V112.727ZM1029.19 175.476C1026.68 156.783 1011.62 145.224 985.991 145.224C960.033 145.224 942.926 157.246 942.992 176.797C942.926 191.989 952.504 201.83 972.319 205.793L989.888 209.294C998.739 211.077 1002.77 214.314 1002.9 219.4C1002.77 225.411 996.229 229.704 986.388 229.704C976.348 229.704 969.677 225.411 967.96 217.154L940.284 218.607C942.926 238.026 959.439 249.982 986.322 249.982C1012.61 249.982 1031.43 236.573 1031.5 216.56C1031.43 201.896 1021.86 193.112 1002.17 189.082L983.812 185.384C974.366 183.336 970.866 180.099 970.932 175.212C970.866 169.135 977.735 165.172 986.454 165.172C996.229 165.172 1002.04 170.522 1003.43 177.061L1029.19 175.476ZM1077.36 112.727H1049.22V248H1077.36V112.727ZM1128.83 249.915C1143.82 249.915 1153.53 243.376 1158.48 233.931H1159.28V248H1185.96V179.571C1185.96 155.396 1165.49 145.224 1142.9 145.224C1118.59 145.224 1102.6 156.849 1098.71 175.344L1124.73 177.457C1126.65 170.72 1132.66 165.766 1142.76 165.766C1152.34 165.766 1157.82 170.588 1157.82 178.911V179.307C1157.82 185.846 1150.89 186.705 1133.25 188.422C1113.17 190.271 1095.14 197.009 1095.14 219.664C1095.14 239.744 1109.47 249.915 1128.83 249.915ZM1136.89 230.496C1128.23 230.496 1122.02 226.467 1122.02 218.739C1122.02 210.813 1128.56 206.916 1138.47 205.529C1144.61 204.67 1154.65 203.217 1158.02 200.972V211.738C1158.02 222.372 1149.24 230.496 1136.89 230.496ZM1235.93 189.347C1236 176.268 1243.79 168.607 1255.15 168.607C1266.44 168.607 1273.25 176.004 1273.18 188.422V248H1301.32V183.402C1301.32 159.756 1287.45 145.224 1266.31 145.224C1251.25 145.224 1240.35 152.622 1235.8 164.445H1234.61V146.545H1207.79V248H1235.93V189.347ZM1360.88 249.651C1377.26 249.651 1385.78 240.206 1389.68 231.751H1390.87V248H1418.61V112.727H1390.54V163.587H1389.68C1385.91 155.33 1377.79 145.224 1360.82 145.224C1338.56 145.224 1319.73 162.53 1319.73 197.405C1319.73 231.355 1337.76 249.651 1360.88 249.651ZM1369.8 227.26C1355.99 227.26 1348.46 214.974 1348.46 197.273C1348.46 179.703 1355.86 167.616 1369.8 167.616C1383.47 167.616 1391.13 179.175 1391.13 197.273C1391.13 215.371 1383.34 227.26 1369.8 227.26Z" fill="white"/>
</svg>
